<?xml version="1.0" encoding="UTF-8"?>
<svg id="Layer_2" data-name="Layer 2" xmlns="http://www.w3.org/2000/svg" viewBox="0 0 727.91 276.33">
  <defs>
    <style>
      .cls-1 {
        fill: #f68212;
      }

      .cls-2 {
        fill: #373435;
      }
    </style>
  </defs>
  <g id="Layer_1-2" data-name="Layer 1">
    <g>
      <path class="cls-1" d="M352.54,72.08c-.06-24.17-20.92-42.62-44.33-42.56-23.69.07-44.05,18.79-44.18,42.8l-.06,11.64h-29.54s.07-13.19.07-13.19c.1-19.7,9.41-38.04,23.97-51.4,21.9-20.09,53.88-25.15,81.23-12.39,25.14,11.73,42.5,37.41,42.52,66.15l.04,70.18c23.03,37.23,14.82,85.35-18.47,112.98-33.25,27.59-82.37,26.73-114.56-2.91-16.89-15.55-27.1-37.09-28.16-60.2-1.44-31.47,14.38-61.02,40.31-77.45,27.82-17.63,62.7-18.17,91.27-1.48l-.11-42.16ZM365.77,189.23c0-31.81-25.8-57.59-57.62-57.59s-57.62,25.78-57.62,57.59,25.8,57.59,57.62,57.59,57.62-25.78,57.62-57.59Z"/>
      <polygon class="cls-2" points="219.95 161.48 204.68 161.67 185.03 132.95 184.98 161.61 169.72 161.6 169.72 109.21 184.88 109.15 204.54 137.93 204.66 109.16 219.93 109.14 219.95 161.48"/>
      <path class="cls-2" d="M55.72,135.43c0,15.38-12.47,27.85-27.86,27.85S0,150.81,0,135.43s12.47-27.85,27.86-27.85,27.86,12.47,27.86,27.85ZM28.55,150.39c4.74-.25,8.3-3.01,9.34-7.5,1.09-4.74,1.28-9.74.15-14.46s-5-7.68-9.75-7.89c-5.14-.22-9.43,2.77-10.64,7.9-1.09,4.66-1.1,9.52.02,14.15,1.23,5.1,5.51,8.07,10.9,7.79Z"/>
      <polygon class="cls-2" points="158.21 139.41 132.98 139.42 132.92 149.74 160.91 149.75 160.9 161.61 116.64 161.61 116.64 109.15 160.13 109.15 160.14 120.37 132.93 120.38 132.94 128.68 158.21 128.69 158.21 139.41"/>
      <polygon class="cls-2" points="618.68 139.39 593.49 139.43 593.41 149.74 621.42 149.76 621.4 161.61 577.16 161.61 577.16 109.15 620.61 109.15 620.61 120.37 593.42 120.38 593.42 128.69 618.61 128.69 618.68 139.39"/>
      <path class="cls-2" d="M661.08,161.43c-7.66,1.87-21.22,1.79-27.42-3.47-3.75-3.61-5.98-8.08-6.37-13.69l15.43-.98c.45,3.39,1.54,6.15,4.34,7.71s6.55,1.65,9.41.12c1.58-.85,2.61-2.6,2.65-4.19.04-1.71-1.02-3.57-2.72-4.43-5.61-2.83-11.25-2.22-19.72-6.73-7.6-4.05-9.84-13.35-4.68-20.39,5.78-7.88,19.5-8.06,28.02-6.28,7.65,1.59,12.22,6.47,13.14,14.78l-15.24.92c-.56-2.27-1.19-4.25-3.01-5.42-2.58-1.66-6.2-1.87-8.85-.38-1.18.66-1.85,2.11-1.79,3.33.17,3.22,6.26,3.92,9.48,4.67,4.35,1.02,8.55,2.15,12.51,4.06,5.79,2.79,9.09,8.2,8.61,14.66-.57,7.71-6,13.82-13.79,15.72Z"/>
      <path class="cls-2" d="M714.5,161.31c-7.03,1.85-14.24,1.55-21.14-.06-8-1.87-12.49-9.14-13.07-17l15.46-.94c.36,3.03,1.24,5.29,3.33,7.1,3.05,2.13,7.25,2.51,10.51.63,1.63-.94,2.62-2.72,2.53-4.46-.08-1.57-1.2-3.35-2.86-4.14-6.03-2.88-11.55-2.2-19.87-6.83-7.46-4.15-9.46-13.38-4.33-20.3,5.71-7.7,18.99-7.9,27.51-6.29,8.05,1.52,12.74,6.61,13.57,14.89l-15.25.9c-.5-2.13-1.07-4-2.68-5.19-2.58-1.9-6.28-2.1-9.09-.66-1.25.64-1.92,2.13-1.84,3.38.07,1.05,1.14,2.46,2.4,2.85,7.07,2.17,13.09,2.6,19.91,6.04,5.61,2.83,8.75,8.18,8.27,14.5-.57,7.53-5.76,13.59-13.36,15.58Z"/>
      <path class="cls-2" d="M439.71,153h-18.44s-2.59,8.61-2.59,8.61l-16.56-.02,19.69-52.4,17.72-.06,19.72,52.44-16.96.06-2.58-8.63ZM436.24,141.46l-5.74-18.63-5.72,18.71,11.46-.08Z"/>
      <path class="cls-2" d="M544.65,150.39c6.88-.18,8.73-4.02,10.47-10.19l14.13,4.26c-1.9,8.98-7.88,16.11-17.33,17.6-5.24.83-10.42.65-15.59-.39-4.78-.96-8.78-3.38-11.85-7.11-2.71-3.28-4.62-6.91-5.46-11.14-2.82-14.11,1.02-30.28,16.83-34.12,5.83-1.41,11.82-1.43,17.67-.06,7.92,1.85,12.99,7.85,15.18,15.38l-14.29,3.16c-1.13-4.57-4.64-7.25-9.05-7.38-4.84-.14-8.86,2.89-10.05,7.66s-1.07,10.3.06,15.34c1,4.47,4.77,7.1,9.29,6.99Z"/>
      <path class="cls-2" d="M487.1,150.37c7.01.09,9.34-3.58,10.97-10.18l14.22,4.3c-2.05,9.25-8.16,16.22-17.5,17.61-5.35.79-10.66.65-15.9-.52-9-2.01-15.37-9.97-16.95-18.65-2.49-13.63,1.02-29.13,15.96-33.33,6.16-1.73,12.57-1.76,18.82-.29,7.92,1.87,12.69,7.87,15.08,15.31l-14.32,3.19c-1.15-4.47-4.69-7.35-9.28-7.39s-8.73,2.97-9.89,7.74c-1.22,5.02-1.06,10.34.11,15.37.97,4.19,4.43,6.8,8.69,6.86Z"/>
      <path class="cls-2" d="M107.52,130.67c-2.07,8.14-9.46,11.42-17.29,11.47l-10.28.07-.06,19.4h-16.26s0-52.47,0-52.47h28.03c2.47.01,4.81.58,7.1,1.17,8.68,2.93,10.76,12.45,8.75,20.35ZM87.82,131.13c3.26-.61,4.86-3.38,4.51-6.22-.74-6.08-7.8-5.02-12.4-5.03v11.65c2.81.05,5.24.1,7.89-.39Z"/>
      <ellipse class="cls-1" cx="308.44" cy="189.49" rx="24.39" ry="24.38"/>
    </g>
  </g>
</svg>