<?xml version="1.0" encoding="UTF-8"?>
<svg id="Layer_2" data-name="Layer 2" xmlns="http://www.w3.org/2000/svg" viewBox="0 0 481.84 80.98">
  <g id="Layer_1-2" data-name="Layer 1">
    <g>
      <path d="M416.3,72.8c8.2.95,16.84-2.55,19.69-10.82l9.95.26c-4.76,15.96-21.51,21.68-36.31,17.33-8.15-2.39-14.44-8.19-17.47-16.17-5.95-15.67-.86-35.23,16.48-41,6.31-2.1,12.92-2.24,19.31-.49,9.14,2.5,15.85,9.46,18.19,18.62,1.14,4.48,1.29,9.02.89,13.6l-15.24.13-32.04.05c.56,9.68,6.88,17.38,16.56,18.49ZM437.44,46.71c-.13-3.2-.76-6.11-2.22-8.8-5.05-9.32-17.02-11.38-25.82-6.78-5.86,3.06-9.45,8.98-9.59,15.6h37.63Z"/>
      <path d="M154.24,72.93c7.77.56,15.49-3.13,18.34-10.91l9.91.26c-2.67,9.03-9.8,15.71-18.98,17.8-13.64,3.1-28.75-1.87-34.44-15.76-5.35-13.05-2.74-29.85,9.3-38.24,9.08-6.33,21.07-7.1,30.96-2.24,11.64,5.71,15.6,18.15,14.23,30.31l-14.77.12-32.34.05c.5,10.4,7.38,17.87,17.8,18.62ZM173.98,46.71c-.16-3.39-.87-5.99-2.14-8.59-3.29-6.3-9.77-9.52-16.76-9.34-10.12.25-18.3,7.84-18.61,17.97l37.51-.03Z"/>
      <path d="M334.17,72.6c8.47,1.56,17.73-1.97,20.9-10.59l9.94.34c-2.87,9.47-10.51,16.02-19.86,17.89-14.16,2.83-28.68-2.93-33.92-17.12-2.79-7.55-2.94-15.69-.42-23.35,5.49-16.65,24.55-23.19,39.93-16.43,12.36,5.44,16.7,18.16,15.32,30.79l-15.83.14-31.32.04c.34,9.22,6.14,16.61,15.25,18.29ZM341.77,29.04c-11.61-1.77-22.22,5.42-22.77,17.67h37.54c-.34-9.11-5.96-16.11-14.78-17.67Z"/>
      <path d="M231.67,37.85c-3.84-9.02-14.86-10.89-22.59-7.25-5.21,2.46-8.67,7.63-8.69,13.6l-.13,35.57-9.55.02V21.77s9.5-.05,9.5-.05l.15,8.01c3.1-3.56,6.47-6.25,10.84-7.7,11.73-3.88,25.97.81,30.1,13.57.89,2.76,1.45,5.56,1.45,8.57l.03,35.61-9.46.03-.04-34.55c0-2.66-.61-5.1-1.6-7.43Z"/>
      <path d="M40.34,76c-7.53,6.1-19.32,6.04-27.95,2.71-6.81-2.63-11.9-8.17-12.39-15.5l9.56-.1c1.81,9.05,12.8,11.14,20.37,9.06,4.36-1.2,7.61-4.73,6.6-9.44-2.09-9.79-28.58-6.07-34.21-19.28-2.95-6.91-.16-14.62,6.1-18.61,7.23-4.61,17.48-5.38,25.34-2.13,6.51,2.7,10.9,8.57,11.29,15.7h-9.28c-.56-4.08-3.02-7.26-6.91-8.63-4.59-1.62-9.83-1.21-14.12,1.1-2.76,1.49-4.35,4.39-3.92,7.41,1.5,10.43,26.52,7.38,33.21,18.62,3.78,6.36,1.99,14.5-3.69,19.1Z"/>
      <path d="M66.64,69.03c5.67,4.46,13.33,5.15,19.71,2.19,4.25-1.97,7.15-5.38,8.55-9.8l9.96.17c-2.21,9.51-9.69,16.59-19.19,18.59-13.69,2.89-27.85-2.32-33.52-15.72-3.12-7.36-3.67-15.49-1.56-23.2,4.87-17.82,24.25-24.76,40.51-18.02,7.12,3.1,12.27,9.05,13.81,16.91l-10.14.04c-1.18-4.47-4.02-7.98-8.32-9.79-5.72-2.41-12.38-2.16-17.83.93-9.21,5.22-10.96,17.34-8.71,26.76,1.03,4.29,3.14,8.12,6.72,10.94Z"/>
      <path d="M266.35,68.39c5.72,4.99,13.8,5.86,20.47,2.75,4.01-2.07,6.87-5.21,8.07-9.7l10.06.18c-2.03,8.74-8.49,15.6-17.17,18.08-14.22,4.06-29.52-1.64-35.57-15.81-3.09-7.22-3.55-15.49-1.39-23.02,2.83-9.84,10.46-16.94,20.32-19.25,7.15-1.67,14.43-1.05,21.02,2.15,6.52,3.3,10.99,9.03,12.54,16.37l-10.06.05c-1.34-5.25-5.19-8.97-10.3-10.59-5.12-1.45-10.63-.96-15.33,1.7-9.43,5.34-11.28,17.39-8.74,27.06,1.02,3.88,2.96,7.3,6.08,10.03Z"/>
      <path d="M481.84,79.8l-8.34-.02c-2.91,0-5.75-.29-8.47-1.35-5.78-2.25-8.04-7.42-8.05-13.44V29.71s-7.9-.06-7.9-.06l.04-7.9,7.83-.04.07-14.2,9.47.02v14.19s15.33.03,15.33.03v7.93s-15.32.03-15.32.03l.05,35.82c0,3.25,2.35,5.66,5.44,5.94,3.29.3,6.36.15,9.83.2l.03,8.14Z"/>
      <rect x="372.91" y="1.09" width="9.51" height="78.73"/>
      <rect x="85.4" y="45.99" width="58.11" height="9.56" transform="translate(63.68 165.22) rotate(-90)"/>
      <circle cx="114.45" cy="6.41" r="6.41"/>
    </g>
  </g>
</svg>